<svg width="26" height="26" viewBox="0 0 26 26" fill="none" xmlns="http://www.w3.org/2000/svg">
<path d="M26 13C26 5.8203 20.1797 0 13 0V0C5.8203 0 0 5.8203 0 13V13C0 20.1797 5.8203 26 13 26V26C20.1797 26 26 20.1797 26 13V13Z" fill="#009D9A"/>
<path fill-rule="evenodd" clip-rule="evenodd" d="M15.3207 15.0559C14.7376 15.0559 14.2477 14.5873 14.2477 14.0096C14.2477 13.4319 14.7376 12.9478 15.3207 12.9478C15.9037 12.9478 16.3766 13.4319 16.3766 14.0096C16.3766 14.5873 15.9037 15.0559 15.3207 15.0559ZM15.5683 17.0867C15.0253 17.6243 14.1877 17.8856 13.008 17.8856C13.0056 17.8856 13.0026 17.8851 12.9997 17.8851C12.9973 17.8851 12.9943 17.8856 12.9914 17.8856C11.8117 17.8856 10.9746 17.6243 10.432 17.0867C10.2653 16.9214 10.2653 16.6543 10.432 16.4896C10.5983 16.3249 10.8679 16.3249 11.0346 16.4896C11.409 16.8606 12.0491 17.0412 12.9914 17.0412C12.9943 17.0412 12.9973 17.0417 12.9997 17.0417C13.0026 17.0417 13.0056 17.0412 13.008 17.0412C13.9503 17.0412 14.5909 16.8606 14.9658 16.4896C15.1325 16.3244 15.4021 16.3249 15.5683 16.4896C15.7346 16.6548 15.7346 16.9219 15.5683 17.0867ZM9.62377 14.0096C9.62377 13.4323 10.1127 12.9478 10.6953 12.9478C11.2783 12.9478 11.7512 13.4323 11.7512 14.0096C11.7512 14.5873 11.2783 15.0559 10.6953 15.0559C10.1127 15.0559 9.62377 14.5873 9.62377 14.0096ZM18.1989 7.34438C18.5938 7.34438 18.915 7.66272 18.915 8.05351C18.915 8.44478 18.5938 8.76312 18.1989 8.76312C17.804 8.76312 17.4828 8.44478 17.4828 8.05351C17.4828 7.66272 17.804 7.34438 18.1989 7.34438ZM20.8002 12.8604C20.8002 11.8358 19.9593 11.0026 18.9253 11.0026C18.4777 11.0026 18.0668 11.1591 17.7441 11.4194C16.6009 10.7074 15.1501 10.2785 13.5949 10.1876L14.4061 7.64629L16.6355 8.16654C16.694 8.97083 17.3726 9.6075 18.1989 9.6075C19.0632 9.6075 19.7667 8.91045 19.7667 8.05351C19.7667 7.19705 19.0632 6.5 18.1989 6.5C17.5944 6.5 17.0689 6.84104 16.8071 7.33907L14.2165 6.73477C13.9996 6.68404 13.7802 6.80771 13.7129 7.01832L12.7057 10.1727C11.0302 10.2133 9.4551 10.6437 8.22806 11.3972C7.90972 11.1504 7.50948 11.0026 7.07512 11.0026C6.04113 11.0026 5.2002 11.8358 5.2002 12.8604C5.2002 13.4937 5.52195 14.0535 6.01188 14.3888C5.99141 14.5361 5.98068 14.6844 5.98068 14.8346C5.98068 16.1152 6.73192 17.3064 8.09595 18.1885C9.40342 19.0343 11.134 19.5 12.9685 19.5C14.803 19.5 16.5336 19.0343 17.8411 18.1885C19.2051 17.3064 19.9563 16.1152 19.9563 14.8346C19.9563 14.6979 19.9471 14.5622 19.93 14.4274C20.4526 14.0975 20.8002 13.5183 20.8002 12.8604Z" fill="#F2F7F8"/>
</svg>
