<svg width="26" height="26" viewBox="0 0 26 26" fill="none" xmlns="http://www.w3.org/2000/svg">
<rect width="26" height="26" rx="13" fill="#009D9A"/>
<path d="M19.8899 9.68495C19.4349 9.87995 18.9149 10.01 18.3949 10.075C18.9149 9.74995 19.3699 9.22995 19.5649 8.64495C19.0449 8.96995 18.5249 9.16495 17.8749 9.29495C17.4199 8.77495 16.7049 8.44995 15.9899 8.44995C14.5599 8.44995 13.3899 9.61995 13.3899 11.05C13.3899 11.245 13.3899 11.4399 13.4549 11.6349C11.3099 11.5049 9.3599 10.4649 8.0599 8.90495C7.8649 9.29495 7.7349 9.74995 7.7349 10.2049C7.7349 11.1149 8.1899 11.895 8.9049 12.35C8.4499 12.35 8.0599 12.22 7.7349 12.025C7.7349 13.26 8.6449 14.3649 9.8149 14.5599C9.6199 14.6249 9.3599 14.625 9.0999 14.625C8.9049 14.625 8.7749 14.6249 8.5799 14.5599C8.9049 15.5999 9.8799 16.3799 11.0499 16.3799C10.1399 17.0949 9.0349 17.4849 7.7999 17.4849C7.6049 17.4849 7.4099 17.485 7.1499 17.42C8.3199 18.135 9.6849 18.59 11.1799 18.59C15.9899 18.59 18.5899 14.6249 18.5899 11.1799V10.8549C19.1099 10.6599 19.5649 10.2049 19.8899 9.68495Z" fill="#F2F7F8"/>
</svg>
